<svg width="18" height="18" viewBox="0 0 18 18" fill="none" xmlns="http://www.w3.org/2000/svg">
<path d="M1.6875 13.5C0.75675 13.5 0 12.7432 0 11.8125V2.8125C0 1.88175 0.75675 1.125 1.6875 1.125H3.375V0.5625C3.375 0.252 3.627 0 3.9375 0C4.248 0 4.5 0.252 4.5 0.5625V1.125H9V0.5625C9 0.252 9.252 0 9.5625 0C9.873 0 10.125 0.252 10.125 0.5625V1.125H11.8125C12.7432 1.125 13.5 1.88175 13.5 2.8125V6.1875C13.5 6.498 13.248 6.75 12.9375 6.75C12.627 6.75 12.375 6.498 12.375 6.1875V5.625H1.125V11.8125C1.125 12.123 1.377 12.375 1.6875 12.375H6.1875C6.498 12.375 6.75 12.627 6.75 12.9375C6.75 13.248 6.498 13.5 6.1875 13.5H1.6875ZM12.375 4.5V2.8125C12.375 2.502 12.123 2.25 11.8125 2.25H10.125V2.8125C10.125 3.123 9.873 3.375 9.5625 3.375C9.252 3.375 9 3.123 9 2.8125V2.25H4.5V2.8125C4.5 3.123 4.248 3.375 3.9375 3.375C3.627 3.375 3.375 3.123 3.375 2.8125V2.25H1.6875C1.377 2.25 1.125 2.502 1.125 2.8125V4.5H12.375Z" fill="#737475"/>
<path d="M12.9375 18C10.146 18 7.875 15.729 7.875 12.9375C7.875 10.146 10.146 7.875 12.9375 7.875C15.729 7.875 18 10.146 18 12.9375C18 15.729 15.729 18 12.9375 18ZM12.9375 9C10.7663 9 9 10.7663 9 12.9375C9 15.1087 10.7663 16.875 12.9375 16.875C15.1087 16.875 16.875 15.1087 16.875 12.9375C16.875 10.7663 15.1087 9 12.9375 9Z" fill="#737475"/>
<path d="M12.9375 13.5C12.627 13.5 12.375 13.248 12.375 12.9375V10.9492C12.375 10.6387 12.627 10.3867 12.9375 10.3867C13.248 10.3867 13.5 10.6395 13.5 10.9492V12.375H14.9265C15.237 12.375 15.489 12.627 15.489 12.9375C15.489 13.248 15.237 13.5 14.9265 13.5H12.9375Z" fill="#737475"/>
</svg>
